<?xml version="1.0" encoding="utf-8"?>
<!-- Generator: Adobe Illustrator 19.2.1, SVG Export Plug-In . SVG Version: 6.00 Build 0)  -->
<svg version="1.1" id="layer" xmlns="http://www.w3.org/2000/svg" xmlns:xlink="http://www.w3.org/1999/xlink" x="0px" y="0px"
	 viewBox="-25 -25 700 800" style="enable-background:new 0 0 800 800;" xml:space="preserve" width="300" height="300">
<style type="text/css">
	.st0{fill:#99999A;}
	.st1{fill:#8968CD;}
	.st2{fill:#E60012;}
	.st3{fill:#005BAC;}
</style>
<g>
	<path d="M50.1,389.5h40.4c14,0,27.7,6.3,27.7,22.3c0,8.5-4.1,16.6-12.4,19.9v0.2c8.4,2,10.9,11.4,11.5,18.9
		c0.2,3.3,0.5,15,3.3,17.9h-20.4c-1.8-2.7-2.1-10.4-2.3-12.6c-0.5-8-1.9-16.2-11.5-16.2H70.8v28.8H50.1V389.5z M70.8,423.9h17.3
		c6.2,0,9.5-3.3,9.5-9.3c0-5.9-4.7-8.5-10.4-8.5H70.8V423.9z"/>
	<path d="M159.6,387.8c24.9,0,39,18.3,39,41.2c0,23-14.1,41.2-39,41.2c-25,0-39-18.3-39-41.2C120.5,406.1,134.6,387.8,159.6,387.8
		 M159.6,452.6c13.3,0,18.4-11.8,18.4-23.5c0-11.8-5.1-23.5-18.4-23.5c-13.3,0-18.4,11.7-18.4,23.5
		C141.2,440.8,146.2,452.6,159.6,452.6"/>
	<path d="M203.1,389.5h37c13.6-0.2,28.6,3.3,28.6,19.9c0,7.1-4.2,12.8-10.4,16c8.4,2.4,13.6,9.8,13.6,18.7
		c0,18.9-13.9,24.6-30.8,24.6h-38V389.5z M223.7,420.6h16c3.6,0,8.4-1.9,8.4-7.5c0-5.8-4.1-7.6-8.4-7.6h-16V420.6z M223.7,452.1
		h16.5c6.5,0,11.1-2.3,11.1-8.9c0-7-4.9-9.3-11.1-9.3h-16.5V452.1z"/>
	<path d="M312.5,387.8c24.9,0,39,18.3,39,41.2c0,23-14.1,41.2-39,41.2c-25,0-39-18.3-39-41.2C273.5,406.1,287.6,387.8,312.5,387.8
		 M312.5,452.6c13.3,0,18.4-11.8,18.4-23.5c0-11.8-5.1-23.5-18.4-23.5c-13.3,0-18.4,11.7-18.4,23.5
		C294.1,440.8,299.2,452.6,312.5,452.6"/>
	<polygon points="418.9,407.2 395.2,407.2 395.2,468.6 374.6,468.6 374.6,407.2 351,407.2 351,389.5 418.9,389.5 	"/>
	<rect x="423.5" y="390.2" width="20.6" height="79.2"/>
	<path d="M502.1,417.8c-1.1-8-7.3-12.2-16-12.2c-13.3,0-18.4,11.7-18.4,23.5c0,11.8,5.1,23.5,18.4,23.5c9.6,0,15.2-5.5,16-14.6h20.6
		c-1.1,20.4-16.1,32.4-36.2,32.4c-23.9,0-39.5-18.3-39.5-41.3c0-23,15.5-41.2,39.5-41.2c17.1,0,35.6,10.9,36.2,29.9H502.1z"/>
	<path d="M543.1,442c0.4,9.3,6.2,12.3,15,12.3c6.2,0,12.6-2.2,12.6-8.1c0-7-11.3-8.3-22.7-11.5c-11.3-3.2-23.2-8.3-23.2-22.8
		c0-17.3,17.4-24.1,32.3-24.1c15.7,0,31.6,7.7,31.7,25.5h-20.6c0.3-7.2-6.4-9.5-12.8-9.5c-4.4,0-10,1.6-10,6.8
		c0,6.1,11.4,7.2,22.9,10.4c11.4,3.2,22.9,8.5,22.9,22.8c0,20.1-17.1,26.5-34.5,26.5c-18.2,0-34.3-8-34.4-28.3H543.1z"/>
	<path d="M11.4,519.1c-1.1-8-7.3-12.2-16-12.2c-13.3,0-18.4,11.8-18.4,23.5c0,11.8,5.1,23.5,18.4,23.5c9.7,0,15.2-5.5,16-14.6H32
		c-1.1,20.4-16.1,32.4-36.1,32.4c-24,0-39.5-18.3-39.5-41.2c0-22.9,15.5-41.2,39.5-41.2c17.1,0,35.6,10.9,36.1,29.9H11.4z"/>
	<path d="M72.4,489.2c24.9,0,39,18.3,39,41.2c0,23-14.1,41.2-39,41.2c-25,0-39-18.3-39-41.2C33.3,507.5,47.4,489.2,72.4,489.2
		 M72.4,553.9c13.3,0,18.4-11.7,18.4-23.5c0-11.8-5.1-23.5-18.4-23.5c-13.3,0-18.4,11.8-18.4,23.5C54,542.2,59.1,553.9,72.4,553.9"
		/>
	<polygon points="116,490.8 146.4,490.8 160.1,543.6 160.3,543.6 173.9,490.8 204.3,490.8 204.3,570 184.9,570 184.9,509.9 
		184.7,509.9 168,570 152.3,570 135.7,509.9 135.4,509.9 135.4,570 116,570 	"/>
	<path d="M207.6,490.8h37.6c14.7,0,28.6,6.8,28.6,25.5c0,19.6-11.2,27.3-28.6,27.3h-17V570h-20.6V490.8z M228.2,527.7h13.9
		c6.4,0,11.1-2.7,11.1-9.9c0-7.4-4.8-10.4-11.1-10.4h-13.9V527.7z"/>
	<polygon points="278.3,490.8 341.4,490.8 341.4,507.4 299,507.4 299,521.2 337.8,521.2 337.8,537.2 299,537.2 299,552.3 
		342.5,552.3 342.5,570 278.3,570 	"/>
	<polygon points="412.5,508.6 388.9,508.6 388.9,570 368.3,570 368.3,508.6 344.7,508.6 344.7,490.8 412.5,490.8 	"/>
	<rect x="415.7" y="490.8" width="20.6" height="79.2"/>
	<polygon points="507.4,508.6 483.8,508.6 483.8,570 463.2,570 463.2,508.6 439.6,508.6 439.6,490.8 507.4,490.8 	"/>
	<rect x="511.3" y="490.8" width="20.6" height="79.2"/>
	<path d="M575.6,489.2c25,0,39,18.3,39,41.2c0,23-14.1,41.2-39,41.2c-24.9,0-39-18.3-39-41.2C536.6,507.5,550.7,489.2,575.6,489.2
		 M575.6,553.9c13.3,0,18.4-11.7,18.4-23.5c0-11.8-5.1-23.5-18.4-23.5c-13.3,0-18.4,11.8-18.4,23.5
		C557.2,542.2,562.3,553.9,575.6,553.9"/>
	<polygon points="616.8,490.8 638,490.8 665.5,539.6 665.7,539.6 665.7,490.8 685.1,490.8 685.1,570 663.9,570 636.4,520.7 
		636.2,520.7 636.2,570 616.8,570 	"/>
	<path class="st0" d="M314.5,134c5.8,0,11.4,0.5,16.7,1.5l12.7-13.2c-8.9-3.1-18.9-4.8-29.4-4.8c-17.9,0-34.2,5-46.3,13.1l11.1,10.5
		C289.5,136.6,301.6,134,314.5,134"/>
	<path class="st1" d="M314.5,117.4c10.6,0,20.5,1.7,29.4,4.8l13.8-14.4c-12.9-5.1-27.6-8-43.3-8c-23.3,0-44.6,6.4-60.8,17l14.5,13.7
		C280.3,122.4,296.6,117.4,314.5,117.4"/>
	<path class="st0" d="M248.1,173.7c1.2-4.8,3.3-9.3,6.3-13.4l-5.6-5.6c-1.1,3.5-1.7,7.1-1.7,10.8
		C247.1,168.3,247.5,171.1,248.1,173.7"/>
	<path class="st0" d="M207,204.9l-2.3,12.1l23.3-10c-1.5-3.1-1.8-7.1-2.6-10.4L207,204.9z"/>
	<polygon class="st0" points="190.6,73.1 156.9,257.5 172.8,258.8 206.2,71.7 	"/>
	<path class="st2" d="M303.8,179.2v-14.9l-24.5-23.2l-11.1-10.5l-14.5-13.7l-47.7-45.2l-33.4,187.1l70.6-31
		c-7-6.2-12-12.8-15.7-20.6l-23,9.9l2.3-12.1l14.9-77.6l1.2-6.5l12.3,12.4l15.8,15.9l6.8,6.8l27.9,24l-27.1,12.4
		c7,7,15.4,13.2,26.6,16.7l33.8-15.2L303.8,179.2z"/>
	<path class="st0" d="M380.9,173.7c0.7-2.7,1-5.5,1-8.3c0-8.3-3-16.2-8.3-23l-8,8.3C373.3,157.2,378.8,165.1,380.9,173.7"/>
	<path class="st0" d="M396,252.7l-19-18.3c-3,2.1-6.3,4-9.7,5.8l28.7,27.6l88.6-92.3l-0.1-14.9L396,252.7z"/>
	<path class="st0" d="M331.5,190.7l-15.7-15l-12-11.4l0,14.9l16.9,16.2l16.1,15.5c4.1-1,8-2.3,11.7-3.8L331.5,190.7z"/>
	<polygon class="st0" points="393,107.3 380.4,120.4 366.5,134.9 357,144.8 339.1,163.5 346.6,170.7 365.7,150.8 373.7,142.5 
		388.4,127.2 393,122.3 441.7,169 449.3,161.2 	"/>
	<path class="st1" d="M388.4,127.2l-14.6,15.2c5.2,6.8,8.2,14.7,8.2,23c0,2.8-0.4,5.6-1,8.3c-1.7,7-5.5,13.5-11,19.1
		c-5.6,5.8-12.9,10.6-21.5,14.1c-3.7,1.5-7.6,2.8-11.7,3.8c-6.9,1.7-14.4,2.7-22.2,2.7c-9.6,0-18.7-1.4-26.9-4
		c-11.2-3.5-20.9-9.1-27.9-16.2c-2.6-2.6-4.8-5.3-6.6-8.2c-2.3-3.6-3.9-7.4-4.9-11.4c-0.7-2.7-1-5.5-1-8.3c0-3.7,0.6-7.3,1.7-10.8
		l-16.8-17c-6.2,9.1-9.6,19.4-9.6,30.3c0,2.8,0.3,5.6,0.7,8.3c1.1,6.6,3.4,12.9,6.9,18.7c1.7,3,3.7,5.8,6,8.5
		c5.9,7.1,13.5,13.4,22.5,18.5c15.5,8.8,35,14.1,56.1,14.1c14.8,0,28.7-2.6,41.1-7.1c3.8-1.4,7.4-3,10.8-4.7c8-4,15-9,21-14.6
		c9.9-9.5,16.5-20.9,18.6-33.4c0.4-2.7,0.7-5.5,0.7-8.3C406.7,152.7,399.8,138.6,388.4,127.2"/>
	<path class="st3" d="M331.4,190.8l16.9,16.2c8.5-3.6,15.9-8.3,21.5-14.1l-23.2-22.3l-7.5-7.2l17.9-18.6l9.5-9.9l13.9-14.5
		l12.6-13.1l56.1,53.9l-7.5,7.8l-46,47.9c-4.8,6.6-11.1,12.5-18.5,17.6l18.9,18.2l88.6-92.2L392.2,72l-34.5,36l-13.8,14.4
		l-12.7,13.3l-27.3,28.6L331.4,190.8z"/>
	<path class="st0" d="M253.4,185.6l0.5,0.8c1.4,2.2,3.2,4.1,5,6.1l27.6-12.7l-63.3-59l-1.7,9.1l49.7,49.2L253.4,185.6z"/>
	<path class="st0" d="M406.7,168c0,2.8-0.3,5.6-0.7,8.3c-2,12.5-8.7,23.9-18.6,33.4c-5.9,5.6-13,10.6-21,14.6
		c-3.4,1.7-7,3.3-10.8,4.7c-12.4,4.6-26.3,7.1-41.1,7.1c-21.1,0-40.6-5.3-56.1-14.1c-8.9-5.1-16.6-11.4-22.5-18.5
		c-2.3-2.7-4.3-5.6-6-8.5c-3.4-5.9-5.8-12.2-6.9-18.7c-0.4-2.7-0.7-5.5-0.7-8.3c0-0.9,0.1-1.8,0.1-2.6l0-0.2
		c-0.5,2.7-0.1,16.5-0.1,19.3c0,4.4,0.6,8.8,1.7,13c0.9,3.3,2,6.5,3.5,9.6c3.7,7.8,9.3,15,16.3,21.2c16.9,14.9,42.3,24.4,70.7,24.4
		c19.7,0,37.9-4.6,52.9-12.4c3.4-1.8,6.6-3.7,9.7-5.8c7.4-5.1,13.7-11.1,18.6-17.7c7-9.6,11-20.6,11-32.3c0-2.5,0.2-14.1,0-18.8
		C406.6,165.1,406.7,167.2,406.7,168"/>
	<polygon points="159.2,280 222.2,280 216.3,304.3 186,304.3 183.1,317.1 214.6,317.1 209.1,339.6 178,339.6 170.5,371.5 
		137.9,371.5 	"/>
	<polygon points="230.8,280 263.4,280 242.1,371.5 209.6,371.5 	"/>
	<path d="M271.9,280.6l2.1-0.3c10.5-1.2,23.5-2.1,30.6-2.1c12,0,21.2,1.4,28.2,4.3c9,3.7,14.3,11.8,14.3,21.5
		c0,8.4-2.8,16.3-8.2,22.5c-4.6,5.4-8.8,8-17.5,10.6l-2.1,0.7c0.9,0.7,1.2,1,1.6,1.4c2.5,2.9,10.2,17.7,16.6,32.4h-35.9
		c-4.6-13-6-16.5-12.1-31.3l-7.2,31.3h-31.7L271.9,280.6z M295.9,323.7c10.5,0,17.8-6.2,17.8-15c0-4.7-3.4-7-10.2-7
		c-1.9,0-3,0.1-5.1,0.5l-4.9,21.1C294.6,323.5,294.7,323.7,295.9,323.7"/>
	<polygon points="424.5,280 503.6,280 498,306.5 474.6,306.5 459,371.5 426.5,371.5 442,306.5 416.6,306.5 	"/>
	<path d="M474.3,355.2c4.4,0,7.9,3.5,7.9,7.9c0,4.4-3.5,8-7.9,8c-4.5,0-7.9-3.5-7.9-8C466.4,358.7,469.9,355.2,474.3,355.2
		 M474.3,370.1c3.9,0,7-3.1,7-6.9c0-3.9-3.1-7-7-7c-3.8,0-6.9,3.1-6.9,6.9C467.3,367,470.4,370.1,474.3,370.1 M471.2,359.1
		c0.4,0,0.5-0.1,1.3-0.1c0.8-0.1,1.1-0.1,1.5-0.1c2.6,0,3.9,1,3.9,2.9c0,1.2-0.5,1.9-1.5,2.3l-0.1,0l0.2,0.2c0.3,0.2,1.2,1.6,2,2.9
		h-3c-0.6-1.1-0.8-1.4-1.6-2.7v2.7h-2.5V359.1z M474.1,362.9c0.7,0,1.1-0.3,1.1-1c0-0.6-0.4-1-1.1-1l-0.3,0v1.9L474.1,362.9"/>
	<path d="M340.8,369.2c9.2,2.7,19.2,4.2,28.5,4.2c12.7,0,22.4-2.9,30.8-8.9c9.3-6.6,15.2-16.7,15.2-25.9c0-6.2-2.7-11.8-7.5-15.8
		c-3.7-3-7.6-5.4-15.5-9.1l-6.4-3c-2.1-1.1-3.1-2.2-3.1-3.4c0-3.3,4.2-5.8,9.9-5.8c4.3,0,9.3,1.2,19,4.4l6.7-24.8
		c-7.2-2-14.3-2.9-21.3-2.9c-26.6,0-47.1,14.5-47.1,33.3c0,9.9,6.6,16.9,23,24.6c7.8,3.6,9.1,4.5,9.1,7c0,3.7-4,6-10.6,6
		c-5.8,0-13.3-1.8-23.5-5.5h0L340.8,369.2z"/>
</g>
</svg>
